<svg
      width="144"
      height="32"
      viewBox="0 0 144 32"
      fill="none"
      xmlns="http://www.w3.org/2000/svg"
    >
      <g opacity="0.9">
        <path
          d="M0 15.5085H2.85478V4.91468H3.29398L8.89374 15.5085H12.7367V0.21843H9.88193V10.8123H9.44274L3.84297 0.21843H0V15.5085Z"
          fill="white"
        />
        <path
          d="M16.4802 15.5085H19.335V0.21843H16.4802V15.5085Z"
          fill="white"
        />
        <path
          d="M33.8345 10.0478C33.3733 11.3584 32.2094 12.9966 29.8817 12.9966C27.2465 12.9966 25.2701 11.0089 25.2701 7.86348C25.2701 4.71809 27.2465 2.73038 29.8817 2.73038C32.2094 2.73038 33.3733 4.3686 33.8345 5.56997H36.799C36.3379 3.49488 34.4054 0 29.8817 0C25.7313 0 22.4153 3.25461 22.4153 7.86348C22.4153 12.4724 25.7313 15.727 29.8817 15.727C34.7348 15.727 36.4477 11.7952 36.799 10.0478H33.8345Z"
          fill="white"
        />
        <path
          d="M39.6615 15.5085H42.5163V8.40956L48.2259 15.5085H51.7395L45.4809 7.75427L51.3003 0.21843H47.7867L42.5163 7.09898V0.21843H39.6615V15.5085Z"
          fill="white"
        />
        <path
          d="M57.6789 15.5085H60.8631L62.027 12.2321H68.4832L69.647 15.5085H72.8312L67.3413 0.21843H63.1689L57.6789 15.5085ZM62.9493 9.61092L65.0355 3.49488H65.4747L67.5609 9.61092H62.9493Z"
          fill="white"
        />
        <path
          d="M74.9268 15.5085H80.5266C84.677 15.5085 87.9929 12.2321 87.9929 7.86348C87.9929 3.49488 84.677 0.21843 80.5266 0.21843H74.9268V15.5085ZM77.7816 12.7782V2.94881H80.5266C83.1618 2.94881 85.1382 4.89283 85.1382 7.86348C85.1382 10.8341 83.1618 12.7782 80.5266 12.7782H77.7816Z"
          fill="white"
        />
        <path
          d="M88.988 15.5085H92.1722L93.3361 12.2321H99.7922L100.956 15.5085H104.14L98.6503 0.21843H94.478L88.988 15.5085ZM94.2584 9.61092L96.3446 3.49488H96.7838L98.8699 9.61092H94.2584Z"
          fill="white"
        />
        <path
          d="M106.236 15.5085H109.091V4.91468H109.53L113.153 15.5085H116.228L119.851 4.91468H120.29V15.5085H123.145V0.21843H118.533L114.91 10.9215H114.471L110.847 0.21843H106.236V15.5085Z"
          fill="white"
        />
        <path
          d="M125.998 10.7031C125.998 13.5645 128.304 15.727 132.257 15.727C136.209 15.727 138.186 13.7611 138.186 11.1399C138.186 8.60614 136.78 7.31741 133.684 6.77133L131.268 6.33447C129.621 6.05051 129.182 5.46075 129.182 4.58703C129.182 3.47304 130.039 2.62116 132.037 2.62116C134.035 2.62116 135.111 3.71331 135.111 5.02389H137.966C137.966 2.16246 135.99 0 132.037 0C128.414 0 126.327 2.05324 126.327 4.58703C126.327 6.77133 127.513 8.30034 130.17 8.7372L132.806 9.17406C134.782 9.52355 135.331 10.2444 135.331 11.1399C135.331 12.2539 134.453 13.1058 132.257 13.1058C130.17 13.1058 128.853 12.0355 128.853 10.7031H125.998Z"
          fill="white"
        />
        <path d="M140.926 15.5085H144V12.4505H140.926V15.5085Z" fill="white" />
        <path
          d="M34.8613 31.8908H36.2887V29.3788H38.3199C39.7583 29.3788 40.7355 28.385 40.7355 26.8123C40.7355 25.2396 39.7583 24.2457 38.3199 24.2457H34.8613V31.8908ZM36.2887 28.0137V25.6109H38.265C38.8799 25.6109 39.3081 26.0369 39.3081 26.8123C39.3081 27.5877 38.8799 28.0137 38.265 28.0137H36.2887Z"
          fill="white"
        />
        <path
          d="M42.4417 31.8908H47.6023V30.5802H43.8691V28.7235H47.3827V27.413H43.8691V25.5563H47.6023V24.2457H42.4417V31.8908Z"
          fill="white"
        />
        <path
          d="M51.1665 31.8908H52.5938V25.6109H54.8996V24.2457H48.8607V25.6109H51.1665V31.8908Z"
          fill="white"
        />
        <path
          d="M56.3802 31.8908H61.5408V30.5802H57.8076V28.7235H61.3212V27.413H57.8076V25.5563H61.5408V24.2457H56.3802V31.8908Z"
          fill="white"
        />
        <path
          d="M63.4031 31.8908H64.8305V29.2696H65.2697L67.7401 31.8908H69.5518L67.0813 29.2696C68.2891 29.215 69.3322 28.2867 69.3322 26.8123C69.3322 25.2833 68.2782 24.2457 66.9166 24.2457H63.4031V31.8908ZM64.8305 27.959V25.6109H66.8617C67.4107 25.6109 67.9048 26.1024 67.9048 26.8123C67.9048 27.4676 67.4107 27.959 66.8617 27.959H64.8305Z"
          fill="white"
        />
        <path
          d="M70.7051 29.4881C70.7051 30.9188 71.858 32 73.8344 32C75.8108 32 76.799 31.0171 76.799 29.7065C76.799 28.4396 76.0963 27.7952 74.5481 27.5222L73.3403 27.3038C72.5168 27.1618 72.2972 26.8669 72.2972 26.43C72.2972 25.873 72.7254 25.4471 73.7246 25.4471C74.7238 25.4471 75.2618 25.9932 75.2618 26.6485H76.6892C76.6892 25.2177 75.701 24.1365 73.7246 24.1365C71.9129 24.1365 70.8698 25.1631 70.8698 26.43C70.8698 27.5222 71.4628 28.2867 72.7913 28.5051L74.1089 28.7235C75.0971 28.8983 75.3716 29.2587 75.3716 29.7065C75.3716 30.2635 74.9324 30.6894 73.8344 30.6894C72.7913 30.6894 72.1325 30.1543 72.1325 29.4881H70.7051Z"
          fill="white"
        />
        <path
          d="M78.5532 31.8908H82.2315C83.5491 31.8908 84.4275 31.0171 84.4275 29.7611C84.4275 29.1495 84.2079 28.7345 83.9883 28.4614C83.8565 28.2976 83.7138 28.1666 83.5491 28.0683V28.0137C83.6918 27.9044 83.8126 27.7734 83.9334 27.6205C84.12 27.3584 84.3177 26.9543 84.3177 26.3754C84.3177 25.1195 83.4393 24.2457 82.1217 24.2457H78.5532V31.8908ZM79.9806 27.413V25.5017H81.957C82.517 25.5017 82.8903 25.873 82.8903 26.4846C82.8903 27.0416 82.517 27.413 81.957 27.413H79.9806ZM79.9806 30.6348V28.6689H82.0668C82.5609 28.6689 83.0001 29.0949 83.0001 29.6519C83.0001 30.2089 82.5609 30.6348 82.0668 30.6348H79.9806Z"
          fill="white"
        />
        <path
          d="M86.186 28.7782C86.186 30.744 87.4377 32 89.3702 32C91.3026 32 92.5543 30.744 92.5543 28.7782V24.2457H91.127V28.7782C91.127 29.8703 90.3583 30.6348 89.3702 30.6348C88.382 30.6348 87.6134 29.8703 87.6134 28.7782V24.2457H86.186V28.7782Z"
          fill="white"
        />
        <path
          d="M94.5826 31.8908H96.01V29.2696H96.4492L98.9197 31.8908H100.731L98.2609 29.2696C99.4687 29.215 100.512 28.2867 100.512 26.8123C100.512 25.2833 99.4577 24.2457 98.0962 24.2457H94.5826V31.8908ZM96.01 27.959V25.6109H98.0413C98.5903 25.6109 99.0844 26.1024 99.0844 26.8123C99.0844 27.4676 98.5903 27.959 98.0413 27.959H96.01Z"
          fill="white"
        />
        <path
          d="M108.143 31.8908H109.241V27.8498H105.892V28.942H107.814V28.9966C107.814 29.4881 107.155 30.6348 105.728 30.6348C104.41 30.6348 103.422 29.641 103.422 28.0683C103.422 26.4956 104.41 25.5017 105.728 25.5017C106.76 25.5017 107.375 26.157 107.704 26.8669H109.186C108.923 25.6655 107.803 24.1365 105.728 24.1365C103.652 24.1365 101.994 25.7638 101.994 28.0683C101.994 30.3727 103.652 32 105.728 32C106.507 32 107.045 31.7597 107.43 31.5085C107.649 31.3666 107.836 31.2027 107.979 31.0171H108.033L108.143 31.8908Z"
          fill="white"
        />
      </g>
    </svg>
