<?xml version="1.0" standalone="no"?>
<!DOCTYPE svg PUBLIC "-//W3C//DTD SVG 20010904//EN"
 "http://www.w3.org/TR/2001/REC-SVG-20010904/DTD/svg10.dtd">
<svg version="1.0" xmlns="http://www.w3.org/2000/svg"
 width="700.000000pt" height="700.000000pt" viewBox="0 0 700.000000 700.000000"
 preserveAspectRatio="xMidYMid meet">
<metadata>
Created by potrace 1.11, written by Peter Selinger 2001-2013
</metadata>
<g transform="translate(0.000000,700.000000) scale(0.100000,-0.100000)"
fill="#000000" stroke="none">
<path d="M0 3500 l0 -3500 3500 0 3500 0 0 3500 0 3500 -3500 0 -3500 0 0
-3500z m5698 2314 c215 -90 151 -414 -83 -414 -122 0 -215 93 -215 215 0 85
45 156 125 198 39 21 125 21 173 1z m-1360 -2307 c364 -959 662 -1747 662
-1751 0 -4 -50 -5 -111 -4 l-112 3 -181 475 c-99 261 -185 481 -189 488 -12
18 -1802 18 -1814 0 -4 -7 -90 -227 -189 -488 l-181 -475 -112 -3 c-61 -1
-111 0 -111 4 0 4 298 792 662 1751 l662 1743 176 0 176 0 662 -1743z"/>
<path d="M3450 4998 c-1 -2 -175 -462 -388 -1023 l-388 -1020 413 -3 c227 -1
599 -1 826 0 l413 3 -387 1020 -387 1020 -51 3 c-28 2 -51 2 -51 0z"/>
</g>
</svg>
