<?xml version="1.0" standalone="no"?>
<!DOCTYPE svg PUBLIC "-//W3C//DTD SVG 20010904//EN"
 "http://www.w3.org/TR/2001/REC-SVG-20010904/DTD/svg10.dtd">
<svg version="1.0" xmlns="http://www.w3.org/2000/svg"
 width="700.000000pt" height="700.000000pt" viewBox="0 0 700.000000 700.000000"
 preserveAspectRatio="xMidYMid meet">
<metadata>
Created by potrace 1.11, written by Peter Selinger 2001-2013
</metadata>
<g transform="translate(0.000000,700.000000) scale(0.100000,-0.100000)"
fill="#000000" stroke="none">
<path d="M1135 6989 c-269 -34 -550 -174 -750 -374 -174 -173 -290 -382 -353
-635 l-27 -105 -3 -2310 c-2 -1560 0 -2340 7 -2401 69 -601 544 -1080 1141
-1154 117 -14 4584 -14 4698 0 602 76 1074 552 1143 1154 7 61 9 841 7 2401
l-3 2310 -27 105 c-63 253 -179 462 -353 635 -204 205 -478 338 -767 375 -103
13 -4610 12 -4713 -1z m4563 -1175 c215 -90 151 -414 -83 -414 -187 0 -282
211 -162 362 8 10 34 29 58 43 52 29 129 34 187 9z m-1866 -976 c86 -227 382
-1007 659 -1733 276 -726 504 -1328 506 -1338 5 -16 -3 -17 -107 -15 l-113 3
-181 475 c-100 261 -185 481 -189 488 -12 18 -1802 18 -1814 0 -4 -7 -90 -227
-189 -488 l-181 -475 -112 -3 c-61 -1 -111 1 -111 4 0 4 298 792 662 1751
l662 1743 176 0 176 0 156 -412z"/>
<path d="M3450 4998 c-1 -2 -175 -462 -388 -1023 l-388 -1020 413 -3 c227 -1
599 -1 826 0 l413 3 -387 1020 -387 1020 -51 3 c-28 2 -51 2 -51 0z"/>
</g>
</svg>
